<?xml version="1.0" standalone="no"?>
<!DOCTYPE svg PUBLIC "-//W3C//DTD SVG 20010904//EN"
 "http://www.w3.org/TR/2001/REC-SVG-20010904/DTD/svg10.dtd">
<svg version="1.0" xmlns="http://www.w3.org/2000/svg"
 width="270.000000pt" height="270.000000pt" viewBox="0 0 270.000000 270.000000"
 preserveAspectRatio="xMidYMid meet">
<metadata>
Created by potrace 1.11, written by Peter Selinger 2001-2013
</metadata>
<g transform="translate(0.000000,270.000000) scale(0.100000,-0.100000)"
fill="#000000" stroke="none">
<path d="M0 1350 l0 -1350 1350 0 1350 0 0 1350 0 1350 -1350 0 -1350 0 0
-1350z m2229 1064 c36 -10 69 -30 102 -61 86 -81 82 -38 87 -919 4 -813 -1
-952 -36 -1021 -26 -50 -89 -107 -138 -124 -58 -21 -1760 -21 -1818 0 -49 17
-111 73 -139 125 l-22 41 0 895 0 895 22 40 c32 59 85 105 145 126 50 17 105
18 899 19 741 0 852 -2 898 -16z"/>
</g>
</svg>
